<svg width="16" height="16" fill="none" xmlns="http://www.w3.org/2000/svg"><path d="M2.847 0v.616c0 .371-.17.786-.405 1.239C1.812 2.95 1.163 4.02 1.01 5.288L1 16h2l.01-10.712c.153-1.267.802-2.337 1.432-3.433.235-.453.405-.868.405-1.24V0h-2Zm4 0v.616c0 .371-.17.786-.404 1.239C5.812 2.95 5.163 4.02 5.01 5.288L5 16h2.001l.01-10.712c.153-1.267.801-2.337 1.432-3.433.235-.453.405-.868.405-1.24V0h-2Zm4.001 0v.616c-.315 1.678-1.632 3.165-1.837 4.672L9.001 16h5.693l-.008-10.7c-.32-1.815-1.385-3.08-1.838-4.684V0h-2Z" fill="#000"/></svg>