<svg width="16" height="16" fill="none" xmlns="http://www.w3.org/2000/svg"><path d="M1.965 1.992C1.43 2.08 1 2.58 1 3.115V15.18c0 .534.43.894.965.806l12.066-1.979c.534-.088.964-.588.964-1.122V.82c0-.535-.43-.894-.964-.807L1.964 1.992Zm3.41 3.33c.555-.091.95.204 1.09.722l3.068-.503c.14-.564.532-.988 1.087-1.08.882-.144 1.851.602 2.154 1.659l.723 2.523c.302 1.056-.172 2.04-1.054 2.184-.774.127-1.615-.432-2.014-1.286l-4.863.798c-.399.984-1.24 1.82-2.014 1.946-.882.145-1.356-.683-1.054-1.838l.723-2.76c.303-1.157 1.272-2.22 2.154-2.365ZM7.282 6.58v.986l-.791.13L7.997 9.36 9.505 7.2l-.743.122v-.985l-1.48.243Z" fill="#000"/></svg>