<svg width="16" height="16" fill="none" xmlns="http://www.w3.org/2000/svg"><g clip-path="url(#a)"><path fill-rule="evenodd" clip-rule="evenodd" d="M0 6.355V1a1 1 0 0 1 1-1h2.893a1 1 0 0 1 .708.293l.645.645a1 1 0 0 0 .707.293h4.094a1 1 0 0 0 .707-.293L11.4.293A1 1 0 0 1 12.107 0H15a1 1 0 0 1 1 1v5.355a1 1 0 0 1-.293.707l-.23.23a1 1 0 0 0 0 1.415l.23.23a1 1 0 0 1 .293.708V15a1 1 0 0 1-1 1h-2.893a1 1 0 0 1-.708-.293l-.645-.645a1 1 0 0 0-.707-.293H5.953a1 1 0 0 0-.707.293l-.645.645a1 1 0 0 1-.708.293H1a1 1 0 0 1-1-1V9.645a1 1 0 0 1 .293-.707l.23-.23a1 1 0 0 0 0-1.415l-.23-.23A1 1 0 0 1 0 6.354ZM8 5a1 1 0 0 0-2 0v5.5a1 1 0 0 0 1 1h3a1 1 0 1 0 0-2H8V5Z" fill="#000"/></g><defs><clipPath id="a"><path fill="#fff" d="M0 0h16v16H0z"/></clipPath></defs></svg>