<svg width="16" height="16" fill="none" xmlns="http://www.w3.org/2000/svg"><g clip-path="url(#a)"><path fill-rule="evenodd" clip-rule="evenodd" d="M9.352 5.1a1.509 1.509 0 1 0 2.51 1.675A1.509 1.509 0 0 0 9.352 5.1Zm2.923-.277a2.009 2.009 0 1 1-3.34 2.231 2.009 2.009 0 0 1 3.34-2.23ZM5.01 12.131l-.983-.407a1.7 1.7 0 0 0 3.108-.103 1.696 1.696 0 0 0-1.213-2.29 1.699 1.699 0 0 0-.966.07l1.015.421a1.249 1.249 0 0 1-.96 2.307v.002ZM2.546 2.121A7.996 7.996 0 0 1 7.966 0l.003.013a7.988 7.988 0 0 1 7.159 4.432 7.996 7.996 0 0 1-4.277 11.018 7.99 7.99 0 0 1-8.274-1.558A7.989 7.989 0 0 1 .279 10.18l3.064 1.267A2.264 2.264 0 0 0 7.823 11v-.107l2.718-1.938h.063A3.016 3.016 0 1 0 7.589 5.94v.031l-1.906 2.76h-.126c-.454 0-.898.138-1.273.395L0 7.354A7.995 7.995 0 0 1 2.546 2.12Z" fill="#000"/></g><defs><clipPath id="a"><path fill="#fff" d="M0 0h16v16H0z"/></clipPath></defs></svg>