<svg width="16" height="16" viewBox="0 0 16 16" fill="none" xmlns="http://www.w3.org/2000/svg">
<path fill-rule="evenodd" clip-rule="evenodd" d="M3 1C2.44772 1 2 1.44772 2 2V14C2 14.5523 2.44772 15 3 15H13C13.5523 15 14 14.5523 14 14V2C14 1.44772 13.5523 1 13 1H3ZM5 2C4.44772 2 4 2.44772 4 3V6C4 6.55228 4.44772 7 5 7H11C11.5523 7 12 6.55228 12 6V3C12 2.44772 11.5523 2 11 2H5ZM4 10.5C4 9.67157 4.67157 9 5.5 9C6.32843 9 7 9.67157 7 10.5C7 11.3284 6.32843 12 5.5 12C4.67157 12 4 11.3284 4 10.5ZM10 9C9.44772 9 9 9.44771 9 10C9 10.5523 9.44771 11 10 11H11C11.5523 11 12 10.5523 12 10C12 9.44771 11.5523 9 11 9H10Z" fill="black"/>
</svg>
