<svg width="200" height="300" fill="none" xmlns="http://www.w3.org/2000/svg"><path fill="url(#a)" d="M0 0h200v300H0z"/><path fill-rule="evenodd" clip-rule="evenodd" d="M63.125 113.125c-8.146 0-14.75 6.604-14.75 14.75v44.25c0 8.146 6.604 14.75 14.75 14.75h73.75c8.146 0 14.75-6.604 14.75-14.75v-44.25c0-8.146-6.604-14.75-14.75-14.75h-73.75Zm22.125 14.75a7.375 7.375 0 0 0-7.375 7.375v29.5a7.375 7.375 0 0 0 7.375 7.375h29.5a7.375 7.375 0 0 0 7.375-7.375v-29.5a7.375 7.375 0 0 0-7.375-7.375h-29.5ZM129.5 150a7.375 7.375 0 1 1 14.75 0 7.375 7.375 0 0 1-14.75 0Zm-66.375-7.375a7.375 7.375 0 1 0 0 14.75 7.375 7.375 0 0 0 0-14.75Z" fill="#fff"/><defs><linearGradient id="a" x1="100" y1="0" x2="100" y2="300" gradientUnits="userSpaceOnUse"><stop stop-color="#9A9996"/><stop offset="1" stop-color="#5E5C64"/></linearGradient></defs></svg>