<svg xmlns="http://www.w3.org/2000/svg" width="200" height="300" fill="none">
    <path fill="url(#a)" d="M0 0h200v300H0z"/>
    <g fill="#241F31" clip-path="url(#b)">
        <path d="M49 169.125v15.937C49 193.853 56.147 201 64.938 201h3.187c7.047 0 12.75-5.703 12.75-12.75s5.703-12.75 12.75-12.75 12.75 5.703 12.75 12.75c.872 7.919 8.019 13.622 15.937 12.75 8.791 0 15.938-7.122 15.938-15.938v-15.937c0-14.095-11.405-25.5-25.5-25.5H74.5c-14.095 0-25.5 11.405-25.5 25.5Zm20.719-12.75h3.187c.872 0 1.594.722 1.594 1.594v4.781h4.781c.872 0 1.594.722 1.594 1.594v3.187c0 .897-.722 1.594-1.594 1.594H74.5v4.781c0 .897-.722 1.594-1.594 1.594H69.72a1.573 1.573 0 0 1-1.594-1.594v-4.781h-4.781a1.573 1.573 0 0 1-1.594-1.594v-3.187c0-.872.697-1.594 1.594-1.594h4.781v-4.781c0-.872.697-1.594 1.594-1.594Zm39.843 4.781a4.783 4.783 0 0 1 4.782 4.782 4.783 4.783 0 0 1-4.782 4.781 4.783 4.783 0 0 1-4.781-4.781 4.783 4.783 0 0 1 4.781-4.782Zm12.75 6.375a4.783 4.783 0 0 1 4.782 4.781 4.783 4.783 0 0 1-4.782 4.782 4.783 4.783 0 0 1-4.781-4.782 4.783 4.783 0 0 1 4.781-4.781ZM61.75 118.225c.05 10.558 8.666 19.075 19.225 19.025h50.8c10.609 0 19.225-8.616 19.225-19.225-.05-10.558-8.666-19.075-19.225-19.025h-50.8c-10.609 0-19.225 8.616-19.225 19.225Zm20.52-12.85h3.187c.872 0 1.594.722 1.594 1.594v4.781h4.781c.872 0 1.594.722 1.594 1.594v3.187c0 .897-.722 1.594-1.594 1.594h-4.781v4.781c0 .897-.722 1.594-1.594 1.594h-3.188a1.573 1.573 0 0 1-1.593-1.594v-4.781h-4.782a1.573 1.573 0 0 1-1.593-1.594v-3.187c0-.872.697-1.594 1.593-1.594h4.782v-4.781c0-.872.697-1.594 1.593-1.594Zm39.843 4.781a4.783 4.783 0 0 1 4.782 4.782 4.783 4.783 0 0 1-4.782 4.781 4.783 4.783 0 0 1-4.781-4.781 4.783 4.783 0 0 1 4.781-4.782Zm12.75.199a4.783 4.783 0 0 1 4.782 4.782 4.783 4.783 0 0 1-4.782 4.781 4.783 4.783 0 0 1-4.781-4.781 4.783 4.783 0 0 1 4.781-4.782Z"/>
    </g>
    <defs>
        <linearGradient id="a" x1="100" x2="100" y1="0" y2="300" gradientUnits="userSpaceOnUse">
            <stop stop-color="#DEDDDA"/>
            <stop offset="1" stop-color="#9A9996"/>
        </linearGradient>
        <clipPath id="b">
            <path fill="#fff" d="M49 99h102v102H49z"/>
        </clipPath>
    </defs>
</svg>
