<svg width="128" height="128" viewBox="0 0 128 128" fill="none" xmlns="http://www.w3.org/2000/svg">
<rect x="20" y="8" width="88" height="112" rx="9" fill="#C64600"/>
<rect x="20" y="8" width="88" height="95" rx="9" fill="#FF7800"/>
<rect x="26" y="14" width="76" height="50" rx="4" fill="black"/>
<rect x="38" y="20" width="52" height="38" rx="4" fill="url(#paint0_linear_5_31)"/>
<rect x="54" y="107" width="9" height="9" rx="4.5" fill="#241F31"/>
<rect x="70" y="109" width="5" height="5" rx="2.5" fill="#241F31"/>
<rect x="40" y="73" width="7" height="21" rx="3.5" fill="black"/>
<rect x="54" y="80" width="7" height="21" rx="3.5" transform="rotate(90 54 80)" fill="black"/>
<rect x="40" y="72" width="7" height="21" rx="3.5" fill="#241F31"/>
<rect x="54" y="79" width="7" height="21" rx="3.5" transform="rotate(90 54 79)" fill="#241F31"/>
<rect x="80" y="80" width="11" height="11" rx="5.5" transform="rotate(90 80 80)" fill="black"/>
<rect x="94" y="73" width="11" height="11" rx="5.5" transform="rotate(90 94 73)" fill="black"/>
<rect x="80" y="79" width="11" height="11" rx="5.5" transform="rotate(90 80 79)" fill="#241F31"/>
<rect x="94" y="72" width="11" height="11" rx="5.5" transform="rotate(90 94 72)" fill="#241F31"/>
<defs>
<linearGradient id="paint0_linear_5_31" x1="38" y1="20" x2="38" y2="58" gradientUnits="userSpaceOnUse">
<stop stop-color="#597E53"/>
<stop offset="1" stop-color="#97AE79"/>
</linearGradient>
</defs>
</svg>
