<svg xmlns="http://www.w3.org/2000/svg" width="16" height="16" viewBox="0 0 16 16"><path fill="#222" d="M8 0C3.594 0 0 3.594 0 8s3.594 8 8 8 8-3.594 8-8-3.594-8-8-8m.469 2.02a5.98 5.98 0 0 1 5.511 5.52q-3.109.234-4.718 1.94c-1.055 1.114-1.586 2.649-1.723 4.5A5.98 5.98 0 0 1 2.02 8.47c2.06-.125 3.626-.656 4.708-1.739 1.085-1.085 1.617-2.652 1.742-4.71m-1.004.007c-.121 1.864-.598 3.149-1.445 3.996-.844.844-2.13 1.32-3.997 1.446a5.98 5.98 0 0 1 5.442-5.442m6.508 6.516a5.98 5.98 0 0 1-5.434 5.434c.137-1.653.61-2.922 1.45-3.809.855-.91 2.136-1.477 3.984-1.625m0 0"/></svg>