<svg xmlns="http://www.w3.org/2000/svg" xmlns:gpa="https://www.gtk.org/grappa" gpa:keywords="car vehicle ice combustion engine internal" gpa:state="0" gpa:version="1" width="16" height="16"><path gpa:fill="none" gpa:stroke="foreground" gpa:stroke-width="0.25 1 1.5" fill="none" stroke="url(&quot;#gpa:foreground&quot;) rgb(0,0,0)" stroke-dashoffset="3.2" stroke-linecap="round" stroke-linejoin="round" d="M6 13.496h4" class="transparent-fill foreground-stroke"/><path gpa:fill="none" gpa:stroke="foreground" gpa:stroke-width="0.5 2 3" fill="none" stroke="url(&quot;#gpa:foreground&quot;) rgb(0,0,0)" stroke-dashoffset="3.2" stroke-linecap="round" stroke-linejoin="round" stroke-width="2" d="M6 13.5a1.5 1.5 0 1 1-3 0 1.5 1.5 0 0 1 3 0m7 0a1.5 1.5 0 1 1-3 0 1.5 1.5 0 0 1 3 0M1 9h11.486A2.514 2.514 0 0 1 15 11.514 2.256 2.256 0 0 1 13 14M3 14a2 2 0 0 1-2-2V7a2 2 0 0 1 2-2h5c1.226 0 2.346.693 2.894 1.789L12 9" class="transparent-fill foreground-stroke"/></svg>