<svg xmlns="http://www.w3.org/2000/svg" width="16" height="16" viewBox="0 0 16 16"><path fill="#222" d="M1.977 7c-.551 0-1 .45-1 1v1.617c0 1.098.32 2.168.921 3.086l.114.172A4.72 4.72 0 0 0 5.949 15H12c1.645 0 3-1.355 3-3V9.914c-.004-.008 0-.008 0-.016 0-.023-.012-.043-.012-.066v-.016c0-.023-.011-.043-.015-.066-.012-.027-.016-.055-.024-.082l-.031-.074s0-.012-.008-.016q-.019-.029-.031-.062s0-.008-.012-.012q-.016-.03-.039-.059-.023-.036-.047-.066-.02-.026-.043-.05c0-.009-.011-.009-.015-.017l-.008-.007q-.026-.029-.05-.051l-.013-.008a.3.3 0 0 0-.054-.043s-.008-.012-.012-.012l-.059-.039-.011-.011-.063-.032-.074-.035c-.012 0-.012-.008-.016-.008q-.03-.017-.066-.027h-.012a.4.4 0 0 0-.066-.016c-.024-.011-.047-.011-.067-.015h-.047c-.023 0-.046-.008-.066-.008H8.703a2 2 0 0 1-1.73.996h-2v1c-.551 0-1-.45-1-1v-1h3a1 1 0 0 0 .304-.047c.028-.008.051-.02.078-.027.29-.121.508-.371.586-.676.012-.027.012-.055.02-.082q.012-.082.012-.168a1 1 0 0 0-1-.996zM8 2c-.555 0-1 .445-1 1v3h2V3a1 1 0 0 0-1-1m2.973-.004a1 1 0 0 0-1 1V7a1 1 0 1 0 2 0V2.996c0-.55-.45-1-1-1m3 1.5a1 1 0 0 0-1 1V7a1 1 0 1 0 2 0V4.496c0-.55-.45-1-1-1m-9-.496c-.551 0-1 .45-1 1v2h2V4a1 1 0 0 0-1-1m0 0"/></svg>