<svg xmlns:gpa="https://www.gtk.org/grappa" gpa:keywords="input-gaming applications-games controller gamepad" gpa:state="0" gpa:version="1" width="16" height="16"><path fill="none" stroke="#000" stroke-linecap="round" stroke-linejoin="round" stroke-width="2" d="M1 5.51V11a3 3 0 0 0 3 3c.552 0 1-.336 1-1a2 2 0 0 1 2-2h2a2 2 0 0 1 2 2c0 .717.53 1 1 1a3 3 0 0 0 3-3V5.51A4.51 4.51 0 0 0 10.49 1H5.51A4.51 4.51 0 0 0 1 5.51M12.025 6h.024M10 4h.025M4 6h4M6 4v4" class="foreground-stroke transparent-fill"/></svg>