<svg xmlns="http://www.w3.org/2000/svg" width="16" height="16" viewBox="0 0 16 16"><path fill="#222" d="M7.52-.004c-4.13 0-7.5 3.371-7.5 7.5s3.37 7.5 7.5 7.5c4.128 0 7.5-3.371 7.5-7.5s-3.372-7.5-7.5-7.5m0 2c.253 0 .503.024.75.055.19.261.382.594.55 1.027.106.277.203.586.29.918H5.93q.13-.5.289-.918c.168-.433.36-.765.547-1.027.25-.031.496-.055.754-.055m-2.09.406c-.047.11-.102.203-.145.317-.148.386-.27.82-.379 1.277h-1.62A5.5 5.5 0 0 1 5.43 2.402m4.175 0a5.5 5.5 0 0 1 2.145 1.594h-1.617a10 10 0 0 0-.38-1.277c-.042-.114-.097-.207-.148-.317M2.621 4.996h2.086c-.098.629-.148 1.3-.168 2H2.055a5.6 5.6 0 0 1 .566-2m3.098 0h3.597c.106.617.16 1.293.184 2H5.54c.022-.707.077-1.383.179-2m4.613 0h2.082c.313.61.504 1.285.566 2H10.5c-.02-.7-.07-1.371-.168-2m-8.277 3h2.484c.02.7.07 1.375.168 2H2.621a5.6 5.6 0 0 1-.566-2m3.484 0H9.5a15 15 0 0 1-.184 2H5.72a16 16 0 0 1-.18-2m4.961 0h2.48a5.4 5.4 0 0 1-.566 2h-2.082c.098-.625.148-1.3.168-2m-7.215 3h1.621c.11.457.23.89.38 1.274.042.117.097.21.144.32a5.5 5.5 0 0 1-2.145-1.594m2.645 0h3.18q-.13.5-.29.918a4.4 4.4 0 0 1-.55 1.027 6 6 0 0 1-.75.055c-.254 0-.504-.023-.75-.055a4.4 4.4 0 0 1-.551-1.027 9 9 0 0 1-.29-.918m4.203 0h1.617a5.5 5.5 0 0 1-2.145 1.594c.051-.11.106-.203.149-.32.148-.383.27-.817.379-1.274m0 0"/></svg>