<svg xmlns="http://www.w3.org/2000/svg" width="16" height="16" viewBox="0 0 16 16"><g fill="#222"><path d="M4.523 5.79C3.95 8.43 5.32 11 9 11l-.45-.105 4 2c.434.214.962.093 1.25-.293l1.5-2c.235-.317.266-.743.075-1.086l-5-9a1 1 0 0 0-1.43-.348l-1.5 1L8.008 1 7.156.992a5.724 5.724 0 0 0-5.726 4.93L.164 14.859A1.006 1.006 0 0 0 1.156 16H8c.55 0 1-.45 1-1v-2c0-.55-.45-1-1-1s-1 .45-1 1v2l1-1H1.156l.989 1.14L3.41 6.204a3.72 3.72 0 0 1 3.73-3.21L7.993 3c.2 0 .395-.059.563-.168l1.5-1-1.43-.348 5 9 .074-1.086-1.5 2 1.246-.293-4-2A1 1 0 0 0 9 9c-1.285 0-1.898-.371-2.242-.828-.34-.457-.457-1.14-.281-1.961a.996.996 0 0 0-.766-1.188.996.996 0 0 0-1.188.766m0 0"/><path d="M10 6c0 .55-.45 1-1 1s-1-.45-1-1 .45-1 1-1 1 .45 1 1m0 0"/></g></svg>