<svg xmlns="http://www.w3.org/2000/svg" width="16" height="16" fill="none"><g clip-path="url(#a)"><path fill="#000" fill-rule="evenodd" d="M0 7.937C0 3.554 3.518 0 7.857 0c1.196 0 2.33.27 3.344.753.055-.118.181-.363.301-.371.158-.012.248.09.35.203l.001.002c.102.115.306.287.306.287s.929-.32 1.97.251c1.043.572 1.19.744 1.394 1.144.144.284.14.87.126 1.19l-.039-.004c-.17 0-.308.174-.308.387s.138.387.308.387a.26.26 0 0 0 .133-.039c.153.292.233.562.255.806-.05-.348-.544-.586-.544-.586s-.077.135-.243.215c-.025.012-.056.01-.091.006-.063-.007-.138-.014-.21.06-.239.484.345.888.617.877.265-.011.476-.276.475-.512.047.92-.74 1.461-1.495 1.374-.493-.058-.907-.249-1.383-.469a10 10 0 0 0-1.187-.483c-.951-.307-1.569-.47-2.322-.585-1.486-.227-2.557.12-3.061.424a6 6 0 0 0-.427.284c.772.15 1.236 1.329 1.25 1.65l.002.013v.007l.001.033c-.021.484-.247.845-.725.83a.82.82 0 0 1-.713-.426q-.02-.037-.044-.072a1.92 1.92 0 0 0-.965-.795c-.46.705-.715 1.548-.715 2.53 0 2.897 2.345 5.052 5.213 5.052.907 0 2.817-.309 4-1.28.226-.207.485-.438.725-.55-.862 2.161-3.479 3.488-6.299 3.403C3.534 15.996 0 12.321 0 7.937M13.415 4.02a.596.596 0 0 0 .593-.6.596.596 0 0 0-.593-.599.597.597 0 0 0-.594.6c0 .33.266.6.594.6Z" clip-rule="evenodd"/></g><defs><clipPath id="a"><path fill="#fff" d="M0 0h16v16H0z"/></clipPath></defs></svg>