<svg xmlns="http://www.w3.org/2000/svg" width="128" height="128" viewBox="0 0 128 128"><linearGradient id="d" x1="9" x2="119" y1="115" y2="115" gradientUnits="userSpaceOnUse"><stop offset="0" stop-color="#613583"/><stop offset=".05" stop-color="#9141ac"/><stop offset=".22" stop-color="#613583"/><stop offset=".78" stop-color="#613583"/><stop offset=".95" stop-color="#9141ac"/><stop offset="1" stop-color="#613583"/></linearGradient><linearGradient id="e" x1="45" x2="45" y1="50" y2="82" gradientUnits="userSpaceOnUse"><stop offset="0" stop-color="#bdd0d5"/><stop offset="1" stop-color="#305749"/></linearGradient><clipPath id="c"><path d="M0 0h128v128H0z"/></clipPath><clipPath id="a"><path d="M0 0h128v128H0z"/></clipPath><filter id="b" width="100%" height="100%" x="0%" y="0%"><feColorMatrix in="SourceGraphic" values="0 0 0 0 1 0 0 0 0 1 0 0 0 0 1 0 0 0 1 0"/></filter><mask id="g"><g clip-path="url(#a)" filter="url(#b)"><g clip-path="url(#c)"><path fill="url(#d)" d="M111 29H17a8 8 0 0 0-8 8v70a8 8 0 0 0 8 8h94a8 8 0 0 0 8-8V37a8 8 0 0 0-8-8m0 0"/><path fill="#c061cb" d="M111 29H17c-4.418 0-8 3.68-8 8.223v57.554c0 4.54 3.582 8.223 8 8.223h94c4.418 0 8-3.68 8-8.223V37.223c0-4.54-3.582-8.223-8-8.223m0 0"/><path d="M84 42H44c-2.21 0-4 1.79-4 4v40c0 2.21 1.79 4 4 4h40c2.21 0 4-1.79 4-4V46c0-2.21-1.79-4-4-4m0 0"/><path fill="url(#e)" d="M81 50H47a2 2 0 0 0-2 2v28a2 2 0 0 0 2 2h34a2 2 0 0 0 2-2V52a2 2 0 0 0-2-2m0 0"/><path d="M102 61v-1a5 5 0 1 0-10 0v1a5 5 0 1 0 10 0m12-6v-1a5 5 0 1 0-10 0v1a5 5 0 1 0 10 0m0 0"/><path fill="#3d3846" d="M97 64c2.762 0 5-2.016 5-4.5S99.762 55 97 55s-5 2.016-5 4.5 2.238 4.5 5 4.5m12-6c2.762 0 5-2.016 5-4.5s-2.238-4.5-5-4.5-5 2.016-5 4.5 2.238 4.5 5 4.5m0 0"/><path d="M29 56.5a3.5 3.5 0 1 0-7 0v13a3.5 3.5 0 1 0 7 0zm0 0"/><path d="M33 58H18a3 3 0 0 0-3 3v2a3 3 0 0 0 3 3h15a3 3 0 0 0 3-3v-2a3 3 0 0 0-3-3m0 0"/><path fill="#3d3846" d="M29 54.5a3.5 3.5 0 1 0-7 0v13a3.5 3.5 0 1 0 7 0zm0 0"/><path fill="#3d3846" d="M33 58H18a3 3 0 0 0 0 6h15a3 3 0 0 0 0-6m0 0"/><path d="M71 109a2 2 0 1 1 2 2 2 2 0 0 1-2-2m0 0"/><path fill="#9141ac" d="M71.063 108.5a2 2 0 0 0 3.875 0 1.998 1.998 0 0 1-2.817 2.293 1.99 1.99 0 0 1-1.058-2.293m0 0"/><path d="M66 107H56a2 2 0 1 0 0 4h10a2 2 0 1 0 0-4m0 0"/><path fill="#9141ac" d="M54.063 108.5a2.01 2.01 0 0 0 .355 1.727c.379.488.965.773 1.582.773h10c.617 0 1.203-.285 1.582-.773a2 2 0 0 0 .356-1.727A2 2 0 0 1 66 110H56c-.914 0-1.71-.617-1.937-1.5m0 0"/><path fill="#613583" d="M110 74H96c-.55 0-1 .45-1 1s.45 1 1 1h14c.55 0 1-.45 1-1s-.45-1-1-1m0 5H96c-.55 0-1 .45-1 1s.45 1 1 1h14c.55 0 1-.45 1-1s-.45-1-1-1m0 5H96c-.55 0-1 .45-1 1s.45 1 1 1h14c.55 0 1-.45 1-1s-.45-1-1-1m0 0"/><path d="M21.5 79h-3c-1.379 0-2.5 1.121-2.5 2.5s1.121 2.5 2.5 2.5h3c1.379 0 2.5-1.121 2.5-2.5S22.879 79 21.5 79m11 0h-3c-1.379 0-2.5 1.121-2.5 2.5s1.121 2.5 2.5 2.5h3c1.379 0 2.5-1.121 2.5-2.5S33.879 79 32.5 79m0 0"/><path fill="#3d3846" d="M22 79h-4a2 2 0 1 0 0 4h4a2 2 0 1 0 0-4m11 0h-4a2 2 0 1 0 0 4h4a2 2 0 1 0 0-4m0 0"/></g></g></mask><mask id="i"><g filter="url(#b)"><path fill-opacity=".8" d="M0 0h128v128H0z"/></g></mask><linearGradient id="j" x1="300" x2="428" y1="235" y2="235" gradientTransform="matrix(0 .37 -.98462 0 295.385 -30.36)" gradientUnits="userSpaceOnUse"><stop offset="0" stop-color="#f9f06b"/><stop offset="1" stop-color="#f5c211"/></linearGradient><clipPath id="h"><path d="M0 0h128v128H0z"/></clipPath><clipPath id="f"><path d="M0 0h128v128H0z"/></clipPath><path fill="url(#d)" d="M111 29H17a8 8 0 0 0-8 8v70a8 8 0 0 0 8 8h94a8 8 0 0 0 8-8V37a8 8 0 0 0-8-8m0 0"/><path fill="#c061cb" d="M111 29H17c-4.418 0-8 3.68-8 8.223v57.554c0 4.54 3.582 8.223 8 8.223h94c4.418 0 8-3.68 8-8.223V37.223c0-4.54-3.582-8.223-8-8.223m0 0"/><path d="M84 42H44c-2.21 0-4 1.79-4 4v40c0 2.21 1.79 4 4 4h40c2.21 0 4-1.79 4-4V46c0-2.21-1.79-4-4-4m0 0"/><path fill="url(#e)" d="M81 50H47a2 2 0 0 0-2 2v28a2 2 0 0 0 2 2h34a2 2 0 0 0 2-2V52a2 2 0 0 0-2-2m0 0"/><path d="M102 61v-1a5 5 0 1 0-10 0v1a5 5 0 1 0 10 0m12-6v-1a5 5 0 1 0-10 0v1a5 5 0 1 0 10 0m0 0"/><path fill="#3d3846" d="M97 64c2.762 0 5-2.016 5-4.5S99.762 55 97 55s-5 2.016-5 4.5 2.238 4.5 5 4.5m12-6c2.762 0 5-2.016 5-4.5s-2.238-4.5-5-4.5-5 2.016-5 4.5 2.238 4.5 5 4.5m0 0"/><path d="M29 56.5a3.5 3.5 0 1 0-7 0v13a3.5 3.5 0 1 0 7 0zm0 0"/><path d="M33 58H18a3 3 0 0 0-3 3v2a3 3 0 0 0 3 3h15a3 3 0 0 0 3-3v-2a3 3 0 0 0-3-3m0 0"/><path fill="#3d3846" d="M29 54.5a3.5 3.5 0 1 0-7 0v13a3.5 3.5 0 1 0 7 0zm0 0"/><path fill="#3d3846" d="M33 58H18a3 3 0 0 0 0 6h15a3 3 0 0 0 0-6m0 0"/><path d="M71 109a2 2 0 1 1 2 2 2 2 0 0 1-2-2m0 0"/><path fill="#9141ac" d="M71.063 108.5a2 2 0 0 0 3.875 0 1.998 1.998 0 0 1-2.817 2.293 1.99 1.99 0 0 1-1.058-2.293m0 0"/><path d="M66 107H56a2 2 0 1 0 0 4h10a2 2 0 1 0 0-4m0 0"/><path fill="#9141ac" d="M54.063 108.5a2.01 2.01 0 0 0 .355 1.727c.379.488.965.773 1.582.773h10c.617 0 1.203-.285 1.582-.773a2 2 0 0 0 .356-1.727A2 2 0 0 1 66 110H56c-.914 0-1.71-.617-1.937-1.5m0 0"/><path fill="#613583" d="M110 74H96c-.55 0-1 .45-1 1s.45 1 1 1h14c.55 0 1-.45 1-1s-.45-1-1-1m0 5H96c-.55 0-1 .45-1 1s.45 1 1 1h14c.55 0 1-.45 1-1s-.45-1-1-1m0 5H96c-.55 0-1 .45-1 1s.45 1 1 1h14c.55 0 1-.45 1-1s-.45-1-1-1m0 0"/><path d="M21.5 79h-3c-1.379 0-2.5 1.121-2.5 2.5s1.121 2.5 2.5 2.5h3c1.379 0 2.5-1.121 2.5-2.5S22.879 79 21.5 79m11 0h-3c-1.379 0-2.5 1.121-2.5 2.5s1.121 2.5 2.5 2.5h3c1.379 0 2.5-1.121 2.5-2.5S33.879 79 32.5 79m0 0"/><path fill="#3d3846" d="M22 79h-4a2 2 0 1 0 0 4h4a2 2 0 1 0 0-4m11 0h-4a2 2 0 1 0 0 4h4a2 2 0 1 0 0-4m0 0"/><g clip-path="url(#f)" mask="url(#g)"><g clip-path="url(#h)" mask="url(#i)"><path fill="url(#j)" d="M128 80.64V128H0V80.64zm0 0"/><path d="M13.309 80.64 60.664 128H81.88L34.52 80.64zm42.421 0L103.094 128h21.215L76.945 80.64zm42.43 0L128 110.48V89.27l-8.629-8.63zM0 88.548v21.215L18.238 128h21.215zm0 0"/></g></g></svg>