<svg xmlns="http://www.w3.org/2000/svg" width="128" height="128" fill="none"><path fill="url(#a)" d="M111 29H17a8 8 0 0 0-8 8v70a8 8 0 0 0 8 8h94a8 8 0 0 0 8-8V37a8 8 0 0 0-8-8"/><path fill="#c061cb" d="M111 29H17c-4.418 0-8 3.681-8 8.222v57.556c0 4.54 3.582 8.222 8 8.222h94c4.418 0 8-3.681 8-8.222V37.222c0-4.54-3.582-8.222-8-8.222"/><path fill="#000" d="M84 42H44a4 4 0 0 0-4 4v40a4 4 0 0 0 4 4h40a4 4 0 0 0 4-4V46a4 4 0 0 0-4-4"/><path fill="url(#b)" d="M81 50H47a2 2 0 0 0-2 2v28a2 2 0 0 0 2 2h34a2 2 0 0 0 2-2V52a2 2 0 0 0-2-2"/><path fill="#000" d="M102 61v-1a5 5 0 0 0-10 0v1a5 5 0 0 0 10 0m12-6v-1a5 5 0 0 0-10 0v1a5 5 0 0 0 10 0"/><path fill="#3d3846" d="M97 64c2.761 0 5-2.015 5-4.5S99.761 55 97 55s-5 2.015-5 4.5 2.239 4.5 5 4.5m12-6c2.761 0 5-2.015 5-4.5s-2.239-4.5-5-4.5-5 2.015-5 4.5 2.239 4.5 5 4.5"/><path fill="#000" d="M29 56.5a3.5 3.5 0 1 0-7 0v13a3.5 3.5 0 1 0 7 0z"/><path fill="#000" d="M33 58H18a3 3 0 0 0-3 3v2a3 3 0 0 0 3 3h15a3 3 0 0 0 3-3v-2a3 3 0 0 0-3-3"/><path fill="#3d3846" d="M29 54.5a3.5 3.5 0 1 0-7 0v13a3.5 3.5 0 1 0 7 0z"/><path fill="#3d3846" d="M33 58H18a3 3 0 1 0 0 6h15a3 3 0 1 0 0-6"/><path fill="#000" d="M71 109a2 2 0 1 1 4 0 2 2 0 0 1-4 0"/><path fill="#9141ac" d="M71.063 108.5a2 2 0 0 0 3.874 0 1.999 1.999 0 0 1-2.817 2.294 1.996 1.996 0 0 1-1.057-2.294"/><path fill="#000" d="M66 107H56a2 2 0 1 0 0 4h10a2 2 0 1 0 0-4"/><path fill="#9141ac" d="M54.063 108.5A2 2 0 0 0 56 111h10a2 2 0 0 0 1.582-.775 2 2 0 0 0 .355-1.725A2 2 0 0 1 66 110H56a2 2 0 0 1-1.937-1.5"/><path fill="#613583" d="M110 74H96a1 1 0 1 0 0 2h14a1 1 0 0 0 0-2m0 5H96a1 1 0 1 0 0 2h14a1 1 0 0 0 0-2m0 5H96a1 1 0 1 0 0 2h14a1 1 0 0 0 0-2"/><path fill="#000" d="M21.5 79h-3a2.5 2.5 0 0 0 0 5h3a2.5 2.5 0 0 0 0-5m11 0h-3a2.5 2.5 0 0 0 0 5h3a2.5 2.5 0 0 0 0-5"/><path fill="#3d3846" d="M22 79h-4a2 2 0 1 0 0 4h4a2 2 0 1 0 0-4m11 0h-4a2 2 0 1 0 0 4h4a2 2 0 1 0 0-4"/><defs><linearGradient id="a" x1="9" x2="119" y1="115" y2="115" gradientUnits="userSpaceOnUse"><stop stop-color="#613583"/><stop offset=".05" stop-color="#9141ac"/><stop offset=".22" stop-color="#613583"/><stop offset=".78" stop-color="#613583"/><stop offset=".95" stop-color="#9141ac"/><stop offset="1" stop-color="#613583"/></linearGradient><linearGradient id="b" x1="45" x2="45" y1="50" y2="82" gradientUnits="userSpaceOnUse"><stop stop-color="#bdd0d5"/><stop offset="1" stop-color="#305749"/></linearGradient></defs></svg>