<svg xmlns="http://www.w3.org/2000/svg" width="127.559" height="127.559" viewBox="0 0 33.75 33.75"><defs><clipPath id="a" clipPathUnits="userSpaceOnUse"><rect width="362.943" height="362.943" x="486.037" y="123.999" rx="32" ry="32" style="display:inline;opacity:1;vector-effect:none;fill:#4a86cf;fill-opacity:1;stroke:none;stroke-width:26.0669;stroke-linecap:butt;stroke-linejoin:miter;stroke-miterlimit:4;stroke-dasharray:none;stroke-dashoffset:0;stroke-opacity:1;marker:none;marker-start:none;marker-mid:none;marker-end:none;paint-order:normal" transform="rotate(45)"/></clipPath></defs><g style="display:inline;stroke-width:.25" transform="translate(0 -633.341)scale(.26367)"><g style="stroke-width:.25"><g clip-path="url(#a)" style="stroke-width:.269963" transform="matrix(.23151 0 0 .23151 4.733 2307.72)"><rect width="424" height="424" x="458.337" y="90.642" clip-path="none" rx="10.092" ry="10.092" style="opacity:1;vector-effect:none;fill:#3584e4;fill-opacity:1;stroke:none;stroke-width:8.22095;stroke-linecap:butt;stroke-linejoin:miter;stroke-miterlimit:4;stroke-dasharray:none;stroke-dashoffset:0;stroke-opacity:1;marker:none;marker-start:none;marker-mid:none;marker-end:none;paint-order:normal" transform="rotate(45 -102.872 89.904)scale(.856)"/><path d="m408.92 561.918-9.886 29.83a173 173 0 0 0-1.427-.072 173 173 0 0 0-23.929 1.852l-13.8-28.501a203 203 0 0 0-29.402 7.972l2.287 31.404a173 173 0 0 0-22.732 11.32l-23.718-21.103a203 203 0 0 0-24.06 18.674l14.1 28.073a173 173 0 0 0-16.637 19.21l-30.058-10.447a203 203 0 0 0-15.017 26.488l23.73 20.508a173 173 0 0 0-7.984 24.143l-31.73 1.848a203 203 0 0 0-3.779 30.217l29.83 9.886a173 173 0 0 0-.072 1.427 173 173 0 0 0 1.852 23.929l-28.502 13.8a203 203 0 0 0 7.973 29.402l31.404-2.287a173 173 0 0 0 11.32 22.732L227.58 875.94A203 203 0 0 0 246.254 900l28.073-14.099a173 173 0 0 0 19.21 16.636l-10.447 30.059a203 203 0 0 0 26.488 15.017l20.508-23.73a173 173 0 0 0 24.142 7.984l1.85 31.73a203 203 0 0 0 30.216 3.779l9.886-29.83a173 173 0 0 0 1.427.072 173 173 0 0 0 23.929-1.852l13.8 28.501a203 203 0 0 0 29.402-7.972l-2.287-31.404a173 173 0 0 0 22.732-11.32l23.718 21.103A203 203 0 0 0 532.96 916l-14.099-28.073a173 173 0 0 0 16.636-19.21l30.059 10.447a203 203 0 0 0 15.017-26.488l-23.73-20.508a173 173 0 0 0 7.984-24.143l31.73-1.848a203 203 0 0 0 3.779-30.217l-29.83-9.886a173 173 0 0 0 .072-1.427 173 173 0 0 0-1.852-23.929l28.501-13.8a203 203 0 0 0-7.972-29.402l-31.405 2.287a173 173 0 0 0-11.319-22.732l21.103-23.718a203 203 0 0 0-18.674-24.06l-28.073 14.1a173 173 0 0 0-19.21-16.637l10.447-30.058a203 203 0 0 0-26.488-15.017l-20.508 23.73a173 173 0 0 0-24.143-7.984l-1.848-31.73a203 203 0 0 0-30.217-3.779m-11.313 75.804a126.926 126.926 0 0 1 126.925 126.925 126.926 126.926 0 0 1-126.925 126.925 126.926 126.926 0 0 1-126.925-126.925 126.926 126.926 0 0 1 126.925-126.925" style="display:inline;opacity:1;vector-effect:none;fill:#98c1f1;fill-opacity:1;stroke:none;stroke-width:7.03712;stroke-linecap:butt;stroke-linejoin:miter;stroke-miterlimit:4;stroke-dasharray:none;stroke-dashoffset:0;stroke-opacity:1;marker:none;marker-start:none;marker-mid:none;marker-end:none;paint-order:normal"/><path d="m51.748 401.284-9.886 29.829q-.713-.04-1.427-.071a173 173 0 0 0-23.929 1.852l-13.8-28.502a203 203 0 0 0-29.401 7.972l2.286 31.405a173 173 0 0 0-22.732 11.32l-23.718-21.104a203 203 0 0 0-24.059 18.675l14.099 28.073a173 173 0 0 0-16.636 19.21l-30.059-10.447a203 203 0 0 0-15.016 26.488l23.73 20.507a173 173 0 0 0-7.985 24.143l-31.73 1.849a203 203 0 0 0-3.778 30.217l29.829 9.886q-.039.713-.072 1.427a173 173 0 0 0 1.852 23.929l-28.501 13.8a203 203 0 0 0 7.972 29.401l31.405-2.286a173 173 0 0 0 11.319 22.732l-21.103 23.718a203 203 0 0 0 18.674 24.059l28.073-14.099a173 173 0 0 0 19.211 16.636l-10.448 30.059a203 203 0 0 0 26.489 15.016l20.507-23.73c7.84 3.25 15.91 5.92 24.143 7.985l1.849 31.73a203 203 0 0 0 30.216 3.778l9.886-29.829q.714.039 1.427.072a173 173 0 0 0 23.93-1.852l13.8 28.501a203 203 0 0 0 29.4-7.972l-2.285-31.405a173 173 0 0 0 22.731-11.319l23.718 21.103a203 203 0 0 0 24.06-18.674l-14.1-28.073a173 173 0 0 0 16.637-19.211l30.058 10.448a203 203 0 0 0 15.017-26.489l-23.73-20.507c3.25-7.84 5.919-15.91 7.984-24.143l31.73-1.849a203 203 0 0 0 3.779-30.216l-29.829-9.886q.04-.714.071-1.427a173 173 0 0 0-1.851-23.93l28.5-13.8a203 203 0 0 0-7.971-29.4l-31.405 2.285a173 173 0 0 0-11.32-22.731l21.104-23.718a203 203 0 0 0-18.674-24.06l-28.074 14.1a173 173 0 0 0-19.21-16.637l10.447-30.058a203 203 0 0 0-26.488-15.017l-20.507 23.73a173 173 0 0 0-24.143-7.984l-1.849-31.73a203 203 0 0 0-30.217-3.779" style="display:inline;opacity:1;vector-effect:none;fill:#1a5fb4;fill-opacity:1;stroke:none;stroke-width:7.03712;stroke-linecap:butt;stroke-linejoin:miter;stroke-miterlimit:4;stroke-dasharray:none;stroke-dashoffset:0;stroke-opacity:1;marker:none;marker-start:none;marker-mid:none;marker-end:none;paint-order:normal"/></g><path d="M8.477 2676a7.98 7.98 0 0 0 1.765 8.656l48.102 48.102a7.98 7.98 0 0 0 11.312 0l48.102-48.102a7.98 7.98 0 0 0 1.765-8.656 8 8 0 0 1-1.765 2.656l-48.102 48.102a7.98 7.98 0 0 1-11.312 0l-48.102-48.102A8 8 0 0 1 8.477 2676" style="display:inline;opacity:.534;vector-effect:none;fill:#1a5fb4;fill-opacity:1;stroke:none;stroke-width:1.62918;stroke-linecap:butt;stroke-linejoin:miter;stroke-miterlimit:4;stroke-dasharray:none;stroke-dashoffset:0;stroke-opacity:1;marker:none;marker-start:none;marker-mid:none;marker-end:none;paint-order:normal" transform="translate(0 -212)"/></g><path d="M0 2402h128v128H0z" style="display:inline;opacity:1;vector-effect:none;fill:none;fill-opacity:1;stroke:none;stroke-width:1.25;stroke-linecap:butt;stroke-linejoin:miter;stroke-miterlimit:4;stroke-dasharray:none;stroke-dashoffset:0;stroke-opacity:1;marker:none;marker-start:none;marker-mid:none;marker-end:none;paint-order:normal"/></g></svg>