<?xml version="1.0" encoding="UTF-8"?>
<svg height="128px" viewBox="0 0 128 128" width="128px" xmlns="http://www.w3.org/2000/svg" xmlns:xlink="http://www.w3.org/1999/xlink">
    <linearGradient id="a" gradientUnits="userSpaceOnUse" x1="9" x2="119" y1="115" y2="115">
        <stop offset="0" stop-color="#613583"/>
        <stop offset="0.05" stop-color="#9141ac"/>
        <stop offset="0.22" stop-color="#613583"/>
        <stop offset="0.78" stop-color="#613583"/>
        <stop offset="0.95" stop-color="#9141ac"/>
        <stop offset="1" stop-color="#613583"/>
    </linearGradient>
    <linearGradient id="b" gradientUnits="userSpaceOnUse" x1="45" x2="45" y1="50" y2="82">
        <stop offset="0" stop-color="#bdd0d5"/>
        <stop offset="1" stop-color="#305749"/>
    </linearGradient>
    <clipPath id="c">
        <rect height="128" width="128"/>
    </clipPath>
    <clipPath id="d">
        <rect height="128" width="128"/>
    </clipPath>
    <filter id="e" height="100%" width="100%" x="0%" y="0%">
        <feColorMatrix in="SourceGraphic" type="matrix" values="0 0 0 0 1 0 0 0 0 1 0 0 0 0 1 0 0 0 1 0"/>
    </filter>
    <mask id="f">
        <g clip-path="url(#d)" filter="url(#e)">
            <g clip-path="url(#c)">
                <path d="m 111 29 h -94 c -4.417969 0 -8 3.582031 -8 8 v 70 c 0 4.417969 3.582031 8 8 8 h 94 c 4.417969 0 8 -3.582031 8 -8 v -70 c 0 -4.417969 -3.582031 -8 -8 -8 z m 0 0" fill="url(#a)"/>
                <path d="m 111 29 h -94 c -4.417969 0 -8 3.679688 -8 8.222656 v 57.554688 c 0 4.539062 3.582031 8.222656 8 8.222656 h 94 c 4.417969 0 8 -3.679688 8 -8.222656 v -57.554688 c 0 -4.539062 -3.582031 -8.222656 -8 -8.222656 z m 0 0" fill="#c061cb"/>
                <path d="m 84 42 h -40 c -2.210938 0 -4 1.789062 -4 4 v 40 c 0 2.210938 1.789062 4 4 4 h 40 c 2.210938 0 4 -1.789062 4 -4 v -40 c 0 -2.210938 -1.789062 -4 -4 -4 z m 0 0"/>
                <path d="m 81 50 h -34 c -1.105469 0 -2 0.894531 -2 2 v 28 c 0 1.105469 0.894531 2 2 2 h 34 c 1.105469 0 2 -0.894531 2 -2 v -28 c 0 -1.105469 -0.894531 -2 -2 -2 z m 0 0" fill="url(#b)"/>
                <path d="m 102 61 v -1 c 0 -2.761719 -2.238281 -5 -5 -5 s -5 2.238281 -5 5 v 1 c 0 2.761719 2.238281 5 5 5 s 5 -2.238281 5 -5 z m 12 -6 v -1 c 0 -2.761719 -2.238281 -5 -5 -5 s -5 2.238281 -5 5 v 1 c 0 2.761719 2.238281 5 5 5 s 5 -2.238281 5 -5 z m 0 0"/>
                <path d="m 97 64 c 2.761719 0 5 -2.015625 5 -4.5 s -2.238281 -4.5 -5 -4.5 s -5 2.015625 -5 4.5 s 2.238281 4.5 5 4.5 z m 12 -6 c 2.761719 0 5 -2.015625 5 -4.5 s -2.238281 -4.5 -5 -4.5 s -5 2.015625 -5 4.5 s 2.238281 4.5 5 4.5 z m 0 0" fill="#3d3846"/>
                <path d="m 29 56.5 c 0 -1.933594 -1.566406 -3.5 -3.5 -3.5 s -3.5 1.566406 -3.5 3.5 v 13 c 0 1.933594 1.566406 3.5 3.5 3.5 s 3.5 -1.566406 3.5 -3.5 z m 0 0"/>
                <path d="m 33 58 h -15 c -1.65625 0 -3 1.34375 -3 3 v 2 c 0 1.65625 1.34375 3 3 3 h 15 c 1.65625 0 3 -1.34375 3 -3 v -2 c 0 -1.65625 -1.34375 -3 -3 -3 z m 0 0"/>
                <path d="m 29 54.5 c 0 -1.933594 -1.566406 -3.5 -3.5 -3.5 s -3.5 1.566406 -3.5 3.5 v 13 c 0 1.933594 1.566406 3.5 3.5 3.5 s 3.5 -1.566406 3.5 -3.5 z m 0 0" fill="#3d3846"/>
                <path d="m 33 58 h -15 c -1.65625 0 -3 1.34375 -3 3 s 1.34375 3 3 3 h 15 c 1.65625 0 3 -1.34375 3 -3 s -1.34375 -3 -3 -3 z m 0 0" fill="#3d3846"/>
                <path d="m 71 109 c 0 -1.105469 0.894531 -2 2 -2 s 2 0.894531 2 2 s -0.894531 2 -2 2 s -2 -0.894531 -2 -2 z m 0 0"/>
                <path d="m 71.0625 108.5 c 0.226562 0.882812 1.023438 1.503906 1.9375 1.503906 s 1.710938 -0.621094 1.9375 -1.503906 c 0.195312 0.757812 -0.066406 1.558594 -0.671875 2.050781 c -0.605469 0.492188 -1.445313 0.585938 -2.144531 0.242188 c -0.855469 -0.414063 -1.296875 -1.375 -1.058594 -2.292969 z m 0 0" fill="#9141ac"/>
                <path d="m 66 107 h -10 c -1.105469 0 -2 0.894531 -2 2 s 0.894531 2 2 2 h 10 c 1.105469 0 2 -0.894531 2 -2 s -0.894531 -2 -2 -2 z m 0 0"/>
                <path d="m 54.0625 108.5 c -0.152344 0.597656 -0.023438 1.234375 0.355469 1.726562 c 0.378906 0.488282 0.964843 0.773438 1.582031 0.773438 h 10 c 0.617188 0 1.203125 -0.285156 1.582031 -0.773438 c 0.378907 -0.492187 0.511719 -1.128906 0.355469 -1.726562 c -0.226562 0.882812 -1.023438 1.5 -1.9375 1.5 h -10 c -0.914062 0 -1.710938 -0.617188 -1.9375 -1.5 z m 0 0" fill="#9141ac"/>
                <path d="m 110 74 h -14 c -0.550781 0 -1 0.449219 -1 1 s 0.449219 1 1 1 h 14 c 0.550781 0 1 -0.449219 1 -1 s -0.449219 -1 -1 -1 z m 0 5 h -14 c -0.550781 0 -1 0.449219 -1 1 s 0.449219 1 1 1 h 14 c 0.550781 0 1 -0.449219 1 -1 s -0.449219 -1 -1 -1 z m 0 5 h -14 c -0.550781 0 -1 0.449219 -1 1 s 0.449219 1 1 1 h 14 c 0.550781 0 1 -0.449219 1 -1 s -0.449219 -1 -1 -1 z m 0 0" fill="#613583"/>
                <path d="m 21.5 79 h -3 c -1.378906 0 -2.5 1.121094 -2.5 2.5 s 1.121094 2.5 2.5 2.5 h 3 c 1.378906 0 2.5 -1.121094 2.5 -2.5 s -1.121094 -2.5 -2.5 -2.5 z m 11 0 h -3 c -1.378906 0 -2.5 1.121094 -2.5 2.5 s 1.121094 2.5 2.5 2.5 h 3 c 1.378906 0 2.5 -1.121094 2.5 -2.5 s -1.121094 -2.5 -2.5 -2.5 z m 0 0"/>
                <path d="m 22 79 h -4 c -1.105469 0 -2 0.894531 -2 2 s 0.894531 2 2 2 h 4 c 1.105469 0 2 -0.894531 2 -2 s -0.894531 -2 -2 -2 z m 11 0 h -4 c -1.105469 0 -2 0.894531 -2 2 s 0.894531 2 2 2 h 4 c 1.105469 0 2 -0.894531 2 -2 s -0.894531 -2 -2 -2 z m 0 0" fill="#3d3846"/>
            </g>
        </g>
    </mask>
    <mask id="g">
        <g filter="url(#e)">
            <rect fill-opacity="0.8" height="128" width="128"/>
        </g>
    </mask>
    <linearGradient id="h" gradientTransform="matrix(0 0.37 -0.98462 0 295.38501 -30.360001)" gradientUnits="userSpaceOnUse" x1="300" x2="428" y1="235" y2="235">
        <stop offset="0" stop-color="#f9f06b"/>
        <stop offset="1" stop-color="#f5c211"/>
    </linearGradient>
    <clipPath id="i">
        <rect height="128" width="128"/>
    </clipPath>
    <clipPath id="j">
        <rect height="128" width="128"/>
    </clipPath>
    <path d="m 111 29 h -94 c -4.417969 0 -8 3.582031 -8 8 v 70 c 0 4.417969 3.582031 8 8 8 h 94 c 4.417969 0 8 -3.582031 8 -8 v -70 c 0 -4.417969 -3.582031 -8 -8 -8 z m 0 0" fill="url(#a)"/>
    <path d="m 111 29 h -94 c -4.417969 0 -8 3.679688 -8 8.222656 v 57.554688 c 0 4.539062 3.582031 8.222656 8 8.222656 h 94 c 4.417969 0 8 -3.679688 8 -8.222656 v -57.554688 c 0 -4.539062 -3.582031 -8.222656 -8 -8.222656 z m 0 0" fill="#c061cb"/>
    <path d="m 84 42 h -40 c -2.210938 0 -4 1.789062 -4 4 v 40 c 0 2.210938 1.789062 4 4 4 h 40 c 2.210938 0 4 -1.789062 4 -4 v -40 c 0 -2.210938 -1.789062 -4 -4 -4 z m 0 0"/>
    <path d="m 81 50 h -34 c -1.105469 0 -2 0.894531 -2 2 v 28 c 0 1.105469 0.894531 2 2 2 h 34 c 1.105469 0 2 -0.894531 2 -2 v -28 c 0 -1.105469 -0.894531 -2 -2 -2 z m 0 0" fill="url(#b)"/>
    <path d="m 102 61 v -1 c 0 -2.761719 -2.238281 -5 -5 -5 s -5 2.238281 -5 5 v 1 c 0 2.761719 2.238281 5 5 5 s 5 -2.238281 5 -5 z m 12 -6 v -1 c 0 -2.761719 -2.238281 -5 -5 -5 s -5 2.238281 -5 5 v 1 c 0 2.761719 2.238281 5 5 5 s 5 -2.238281 5 -5 z m 0 0"/>
    <path d="m 97 64 c 2.761719 0 5 -2.015625 5 -4.5 s -2.238281 -4.5 -5 -4.5 s -5 2.015625 -5 4.5 s 2.238281 4.5 5 4.5 z m 12 -6 c 2.761719 0 5 -2.015625 5 -4.5 s -2.238281 -4.5 -5 -4.5 s -5 2.015625 -5 4.5 s 2.238281 4.5 5 4.5 z m 0 0" fill="#3d3846"/>
    <path d="m 29 56.5 c 0 -1.933594 -1.566406 -3.5 -3.5 -3.5 s -3.5 1.566406 -3.5 3.5 v 13 c 0 1.933594 1.566406 3.5 3.5 3.5 s 3.5 -1.566406 3.5 -3.5 z m 0 0"/>
    <path d="m 33 58 h -15 c -1.65625 0 -3 1.34375 -3 3 v 2 c 0 1.65625 1.34375 3 3 3 h 15 c 1.65625 0 3 -1.34375 3 -3 v -2 c 0 -1.65625 -1.34375 -3 -3 -3 z m 0 0"/>
    <path d="m 29 54.5 c 0 -1.933594 -1.566406 -3.5 -3.5 -3.5 s -3.5 1.566406 -3.5 3.5 v 13 c 0 1.933594 1.566406 3.5 3.5 3.5 s 3.5 -1.566406 3.5 -3.5 z m 0 0" fill="#3d3846"/>
    <path d="m 33 58 h -15 c -1.65625 0 -3 1.34375 -3 3 s 1.34375 3 3 3 h 15 c 1.65625 0 3 -1.34375 3 -3 s -1.34375 -3 -3 -3 z m 0 0" fill="#3d3846"/>
    <path d="m 71 109 c 0 -1.105469 0.894531 -2 2 -2 s 2 0.894531 2 2 s -0.894531 2 -2 2 s -2 -0.894531 -2 -2 z m 0 0"/>
    <path d="m 71.0625 108.5 c 0.226562 0.882812 1.023438 1.503906 1.9375 1.503906 s 1.710938 -0.621094 1.9375 -1.503906 c 0.195312 0.757812 -0.066406 1.558594 -0.671875 2.050781 c -0.605469 0.492188 -1.445313 0.585938 -2.144531 0.242188 c -0.855469 -0.414063 -1.296875 -1.375 -1.058594 -2.292969 z m 0 0" fill="#9141ac"/>
    <path d="m 66 107 h -10 c -1.105469 0 -2 0.894531 -2 2 s 0.894531 2 2 2 h 10 c 1.105469 0 2 -0.894531 2 -2 s -0.894531 -2 -2 -2 z m 0 0"/>
    <path d="m 54.0625 108.5 c -0.152344 0.597656 -0.023438 1.234375 0.355469 1.726562 c 0.378906 0.488282 0.964843 0.773438 1.582031 0.773438 h 10 c 0.617188 0 1.203125 -0.285156 1.582031 -0.773438 c 0.378907 -0.492187 0.511719 -1.128906 0.355469 -1.726562 c -0.226562 0.882812 -1.023438 1.5 -1.9375 1.5 h -10 c -0.914062 0 -1.710938 -0.617188 -1.9375 -1.5 z m 0 0" fill="#9141ac"/>
    <path d="m 110 74 h -14 c -0.550781 0 -1 0.449219 -1 1 s 0.449219 1 1 1 h 14 c 0.550781 0 1 -0.449219 1 -1 s -0.449219 -1 -1 -1 z m 0 5 h -14 c -0.550781 0 -1 0.449219 -1 1 s 0.449219 1 1 1 h 14 c 0.550781 0 1 -0.449219 1 -1 s -0.449219 -1 -1 -1 z m 0 5 h -14 c -0.550781 0 -1 0.449219 -1 1 s 0.449219 1 1 1 h 14 c 0.550781 0 1 -0.449219 1 -1 s -0.449219 -1 -1 -1 z m 0 0" fill="#613583"/>
    <path d="m 21.5 79 h -3 c -1.378906 0 -2.5 1.121094 -2.5 2.5 s 1.121094 2.5 2.5 2.5 h 3 c 1.378906 0 2.5 -1.121094 2.5 -2.5 s -1.121094 -2.5 -2.5 -2.5 z m 11 0 h -3 c -1.378906 0 -2.5 1.121094 -2.5 2.5 s 1.121094 2.5 2.5 2.5 h 3 c 1.378906 0 2.5 -1.121094 2.5 -2.5 s -1.121094 -2.5 -2.5 -2.5 z m 0 0"/>
    <path d="m 22 79 h -4 c -1.105469 0 -2 0.894531 -2 2 s 0.894531 2 2 2 h 4 c 1.105469 0 2 -0.894531 2 -2 s -0.894531 -2 -2 -2 z m 11 0 h -4 c -1.105469 0 -2 0.894531 -2 2 s 0.894531 2 2 2 h 4 c 1.105469 0 2 -0.894531 2 -2 s -0.894531 -2 -2 -2 z m 0 0" fill="#3d3846"/>
    <g clip-path="url(#j)" mask="url(#f)">
        <g clip-path="url(#i)" mask="url(#g)">
            <path d="m 128 80.640625 v 47.359375 h -128 v -47.359375 z m 0 0" fill="url(#h)"/>
            <path d="m 13.308594 80.640625 l 47.355468 47.359375 h 21.214844 l -47.359375 -47.359375 z m 42.421875 0 l 47.363281 47.359375 h 21.214844 l -47.363282 -47.359375 z m 42.429687 0 l 29.839844 29.839844 v -21.210938 l -8.628906 -8.628906 z m -98.160156 7.90625 v 21.214844 l 18.238281 18.238281 h 21.214844 z m 0 0"/>
        </g>
    </g>
</svg>
