<svg xmlns="http://www.w3.org/2000/svg" xmlns:gpa="https://www.gtk.org/grappa" gpa:keywords="privacy private window session browser hat glasses tracking" gpa:state="1" gpa:version="1" width="16" height="16"><path gpa:fill="none" gpa:stroke="foreground" gpa:stroke-width="0.5 2 3" fill="none" stroke="url(&quot;#gpa:foreground&quot;) rgb(0,0,0)" stroke-linecap="round" stroke-linejoin="round" stroke-width="2" d="m4 7 .66-3.297a2.123 2.123 0 0 1 4.033-.42L9 4a1.503 1.503 0 0 1 2.89.041L13 7M2 7h12" class="transparent-fill foreground-stroke"/><path gpa:fill="none" gpa:stroke="foreground" gpa:stroke-width="0.25 0.999998 1.5" fill="none" stroke="url(&quot;#gpa:foreground&quot;) rgb(0,0,0)" stroke-linejoin="round" d="M6.475 11.643c.18-.775.887-1.123 1.584-1.123.696 0 1.312.48 1.468 1.152m3.973-.162a1.99 1.99 0 1 1-3.98 0 1.99 1.99 0 0 1 3.98 0Zm-7.02 0a1.99 1.99 0 1 1-3.98 0 1.99 1.99 0 0 1 3.98 0Z" class="transparent-fill foreground-stroke"/></svg>