<svg xmlns="http://www.w3.org/2000/svg" width="16" height="16" viewBox="0 0 16 16"><g fill="#222"><path d="M0 7c0 2.414 1.059 3.66 2.5 4.492l-.5-.867V13.5C2 14.883 3.117 16 4.5 16S7 14.883 7 13.5V13H5v.5C5 14.883 6.117 16 7.5 16s2.5-1.117 2.5-2.5V13H8v.5c0 1.383 1.117 2.5 2.5 2.5s2.5-1.117 2.5-2.496l.008-1.938-.559.895C15.391 11.016 16 9.328 16 7c0-3.957-3.656-7-8-7-4.348 0-8 3.043-8 7m14 0c0 .934-.105 1.547-.41 2.063-.3.515-.86 1.03-2.024 1.605q-.274.133-.554.254L11 13.5c0 .293-.207.5-.5.5s-.5-.207-.5-.5V13H8v.5c0 .293-.207.5-.5.5s-.5-.207-.5-.5V13H5v.5c0 .293-.207.5-.5.5s-.5-.207-.5-.5v-3.48a8 8 0 0 1-.5-.262c-.508-.293-.852-.586-1.094-.977S2 7.863 2 7c0-2.7 2.582-5 6-5s6 2.3 6 5m0 0"/><path fill-rule="evenodd" d="M6 7c0 .55-.45 1-1 1s-1-.45-1-1 .45-1 1-1 1 .45 1 1m6 0c0 .55-.45 1-1 1s-1-.45-1-1 .45-1 1-1 1 .45 1 1m0 0"/></g></svg>