<svg xmlns="http://www.w3.org/2000/svg" width="16" height="16" viewBox="0 0 16 16"><path fill="#222" d="M15 0c-3.512 0-6.312 1.434-6.89 4.668C6.925 2.84 4.671 2 2 2c-.55 0-1 .45-1 1 0 4.328 2.613 6.95 6 6.71V14H3c-.55 0-1 .45-1 1s.45 1 1 1h10c.55 0 1-.45 1-1s-.45-1-1-1H9V8c4.91 0 7-2.21 7-7 0-.55-.45-1-1-1m-1.043 2.055c-.113 1.375-.477 2.261-1.043 2.832-.57.582-1.476.96-2.914 1.078 0-.754.133-1.352.352-1.828.222-.485.53-.856.937-1.168.637-.477 1.547-.793 2.668-.914M3.067 4.059c1.109.12 2.007.441 2.64.921.406.317.715.692.938 1.176.19.422.316.93.347 1.551-1.039.11-1.89-.176-2.566-.77-.668-.59-1.184-1.542-1.36-2.878m0 0"/></svg>