<svg xmlns="http://www.w3.org/2000/svg" width="16" height="16" viewBox="0 0 16 16"><path fill="#222" d="M7 2.926c-4.043 0-5.895 3.613-5.895 3.613l1.786.902S4.14 4.926 7 4.926c2.055 0 3.098 1.394 3.484 2.074h-.91C8.242 7 8 8.254 8 9.035l6-.047.043-6c-1.043 0-2.031.524-2.031 1.668v.93l-.063.062C11.191 4.558 9.633 2.926 7 2.926M2.383 8.988c-.688 0-1.266.582-1.266 1.266v3.469c0 .683.578 1.265 1.266 1.265h3.469c.683 0 1.265-.582 1.265-1.265v-3.47c0-.683-.582-1.265-1.265-1.265zm.734 2h2v2h-2zm0 0"/></svg>