<svg xmlns="http://www.w3.org/2000/svg" width="360" height="360" fill="none" viewBox="0 0 360 360"><path d="M292.924 9.336a13.43 13.43 0 0 0-11.358 5.334l-29.945 39.937c-21.196-10.737-45.16-16.785-70.535-16.785-25.376 0-49.341 6.048-70.537 16.785L80.605 14.67a13.43 13.43 0 0 0-11.357-5.332c-2.563.123-5.114.99-7.314 2.66-5.87 4.453-7.116 12.825-2.67 18.703l28.51 38.02c-38.347 28.57-63.188 74.305-63.188 125.851 0 14.763 2.037 29.05 5.846 42.592q.012.064.029.127.461 1.632.963 3.25c1.3 4.196 2.802 8.316 4.441 12.379-.28-.696-.46-1.439-.732-2.139 6.25 16.264 14.973 31.296 25.959 44.424.318.425.644.845.99 1.25a146 146 0 0 0 8.83 9.443c9.215 9.15 19.592 17.113 30.838 23.754-2.296-1.363-4.574-2.753-6.783-4.246a139 139 0 0 0 8.306 5.2l-.046-.03.285.164-.239-.135.42.24.024.012c18.653 10.647 39.78 17.291 62.217 19.461-1.276-.13-2.568-.098-3.84-.254 6.133.745 12.344 1.242 18.674 1.258h.644c6.26-.016 12.481-.5 18.666-1.258-.639.078-1.305.057-1.945.13 21.961-2.392 42.613-9.133 60.887-19.665-.042.024-.08.053-.122.076q.742-.425 1.477-.86a137 137 0 0 0 6.746-4.282c-1.806 1.216-3.682 2.332-5.545 3.467 10.775-6.49 20.757-14.175 29.639-22.987a146 146 0 0 0 8.875-9.488c.34-.398.66-.81.973-1.228a156.45 156.45 0 0 0 30.292-56.928c-1.155 3.966-2.439 7.878-3.906 11.701 1.601-4.165 3.044-8.396 4.26-12.709q.01-.037.016-.074c.005-.02.006-.04.011-.059a156 156 0 0 0 4.32-20.654c.29-2.07.25-4.235.458-6.33.511-5.16 1.072-10.308 1.072-15.602 0-8.264-.856-16.305-2.086-24.224-6.437-41.43-28.857-77.566-61.004-101.555l28.41-38.092c4.446-5.878 3.201-14.25-2.668-18.703a13.1 13.1 0 0 0-7.314-2.662M335.5 170.348c.13.831.333 1.637.451 2.472-.115-.831-.161-1.668-.293-2.498zm-308.988-.026c-.075.475-.047.957-.116 1.432.07-.475.187-.934.26-1.408zm22.9 3.389 52.354 8.293 14.392 57.049 42.238-48.285a204 204 0 0 0 45.82 0l42.24 48.285 14.392-57.05 52.355-8.292-46.113 138.492c-1.448 4.35-7.042 5.536-10.13 2.147l-75.653-83.088-75.655 83.088c-3.086 3.389-8.68 2.203-10.129-2.147zM25.48 207.758c.228 2.744.185 5.504.558 8.234-.367-2.692-.33-5.5-.558-8.234m232.63 123.295c-4.645 2.618-9.5 4.893-14.418 7.049.96-.42 1.961-.718 2.912-1.157a157 157 0 0 0 11.506-5.892m-154.047.002a157 157 0 0 0 11.502 5.89c.954.44 1.959.74 2.92 1.16-4.918-2.155-9.775-4.432-14.422-7.05" style="fill:#000;fill-opacity:1"/></svg>